# xmcd
#
# Track frame offsets:
#	150
#	8310
#	20474
#	32983
#	46141
#	60542
#	68830
#	79610
#	89735
#	104854
#	116132
#
# Disc length: 1655 seconds
#
# Revision: 0
# Processed by: cddbd v1.5.2PL0 Copyright (c) Steve Scherf et al.
# Submitted via: FairStars CD Ripper 1.90
#
DISCID=8b06750b
DTITLE=Vic Jordan - Pickaway
DYEAR=1973
DGENRE=Bluegrass
TTITLE0=Pick Away
TTITLE1=Jordan's Hornpipe
TTITLE2=Jean
TTITLE3=Blackberry Blossom
TTITLE4=Dusty Miller
TTITLE5=Little Dave
TTITLE6=Vic's Ride
TTITLE7=Cedar Hill
TTITLE8=Snowflake Reel
TTITLE9=Turkey in the Straw
TTITLE10=Cumberland Gap
EXTD=
EXTT0=Vic Jordan, Norman Blake, Buck White, Butch Robbins, Jody Maphis, Charlie
EXTT0=Collins 
EXTT1=Vic Jordan, Norman Blake, Buck White, Butch Robbins, Jody Maphis, Charlie
EXTT1=Collins 
EXTT2=Vic Jordan, Norman Blake, Buck White, Butch Robbins, Jody Maphis, Charlie
EXTT2=Collins 
EXTT3=Vic Jordan, Norman Blake, Buck White, Butch Robbins, Jody Maphis, Charlie
EXTT3=Collins 
EXTT4=Vic Jordan, Norman Blake, Buck White, Butch Robbins, Jody Maphis, Charlie
EXTT4=Collins 
EXTT5=Vic Jordan, Norman Blake, Buck White, Butch Robbins, Jody Maphis, Charlie
EXTT5=Collins 
EXTT6=Vic Jordan, Norman Blake, Buck White, Butch Robbins, Jody Maphis, Charlie
EXTT6=Collins 
EXTT7=Vic Jordan, Norman Blake, Buck White, Butch Robbins, Jody Maphis, Charlie
EXTT7=Collins 
EXTT8=Vic Jordan, Norman Blake, Buck White, Butch Robbins, Jody Maphis, Charlie
EXTT8=Collins 
EXTT9=Vic Jordan, Norman Blake, Buck White, Butch Robbins, Jody Maphis, Charlie
EXTT9=Collins 
EXTT10=Vic Jordan, Norman Blake, Buck White, Butch Robbins, Jody Maphis, Charlie
EXTT10=Collins 
PLAYORDER=
